<svg fill="none" xmlns="http://www.w3.org/2000/svg" viewBox="4 1 21 101.08"> <g filter="url(#filter0_d_192_2231)"> <path d="M35.6992 6.40625V7H31.9766V6.48047L33.8398 4.40625C34.069 4.15104 34.2461 3.9349 34.3711 3.75781C34.4987 3.57812 34.5872 3.41797 34.6367 3.27734C34.6888 3.13411 34.7148 2.98828 34.7148 2.83984C34.7148 2.65234 34.6758 2.48307 34.5977 2.33203C34.5221 2.17839 34.4102 2.05599 34.2617 1.96484C34.1133 1.8737 33.9336 1.82812 33.7227 1.82812C33.4701 1.82812 33.2591 1.8776 33.0898 1.97656C32.9232 2.07292 32.7982 2.20833 32.7148 2.38281C32.6315 2.55729 32.5898 2.75781 32.5898 2.98438H31.8672C31.8672 2.66406 31.9375 2.37109 32.0781 2.10547C32.2188 1.83984 32.4271 1.62891 32.7031 1.47266C32.9792 1.3138 33.319 1.23438 33.7227 1.23438C34.082 1.23438 34.3893 1.29818 34.6445 1.42578C34.8997 1.55078 35.0951 1.72786 35.2305 1.95703C35.3685 2.18359 35.4375 2.44922 35.4375 2.75391C35.4375 2.92057 35.4089 3.08984 35.3516 3.26172C35.2969 3.43099 35.2201 3.60026 35.1211 3.76953C35.0247 3.9388 34.9115 4.10547 34.7812 4.26953C34.6536 4.43359 34.5169 4.59505 34.3711 4.75391L32.8477 6.40625H35.6992Z" fill="black"/> <path d="M29.8477 1.28125V7H29.125V2.18359L27.668 2.71484V2.0625L29.7344 1.28125H29.8477Z" fill="black"/> <path d="M36.3047 49.4062V50H32.582V49.4805L34.4453 47.4062C34.6745 47.151 34.8516 46.9349 34.9766 46.7578C35.1042 46.5781 35.1927 46.418 35.2422 46.2773C35.2943 46.1341 35.3203 45.9883 35.3203 45.8398C35.3203 45.6523 35.2812 45.4831 35.2031 45.332C35.1276 45.1784 35.0156 45.056 34.8672 44.9648C34.7188 44.8737 34.5391 44.8281 34.3281 44.8281C34.0755 44.8281 33.8646 44.8776 33.6953 44.9766C33.5286 45.0729 33.4036 45.2083 33.3203 45.3828C33.237 45.5573 33.1953 45.7578 33.1953 45.9844H32.4727C32.4727 45.6641 32.543 45.3711 32.6836 45.1055C32.8242 44.8398 33.0326 44.6289 33.3086 44.4727C33.5846 44.3138 33.9245 44.2344 34.3281 44.2344C34.6875 44.2344 34.9948 44.2982 35.25 44.4258C35.5052 44.5508 35.7005 44.7279 35.8359 44.957C35.974 45.1836 36.043 45.4492 36.043 45.7539C36.043 45.9206 36.0143 46.0898 35.957 46.2617C35.9023 46.431 35.8255 46.6003 35.7266 46.7695C35.6302 46.9388 35.5169 47.1055 35.3867 47.2695C35.2591 47.4336 35.1224 47.5951 34.9766 47.7539L33.4531 49.4062H36.3047Z" fill="black"/> <path d="M30.4531 44.2812V50H29.7305V45.1836L28.2734 45.7148V45.0625L30.3398 44.2812H30.4531Z" fill="black"/> <path d="M27.4492 47.2852V47.8789H25.543V47.2852H27.4492Z" fill="black"/> <path d="M33.293 24.7031V25.5703C33.293 26.0365 33.2513 26.4297 33.168 26.75C33.0846 27.0703 32.9648 27.3281 32.8086 27.5234C32.6523 27.7188 32.4635 27.8607 32.2422 27.9492C32.0234 28.0352 31.776 28.0781 31.5 28.0781C31.2812 28.0781 31.0794 28.0508 30.8945 27.9961C30.7096 27.9414 30.543 27.8542 30.3945 27.7344C30.2487 27.612 30.1237 27.4531 30.0195 27.2578C29.9154 27.0625 29.8359 26.8255 29.7812 26.5469C29.7266 26.2682 29.6992 25.9427 29.6992 25.5703V24.7031C29.6992 24.237 29.7409 23.8464 29.8242 23.5312C29.9102 23.2161 30.0312 22.9635 30.1875 22.7734C30.3438 22.5807 30.5312 22.4427 30.75 22.3594C30.9714 22.276 31.2188 22.2344 31.4922 22.2344C31.7135 22.2344 31.9167 22.2617 32.1016 22.3164C32.2891 22.3685 32.4557 22.4531 32.6016 22.5703C32.7474 22.6849 32.8711 22.8385 32.9727 23.0312C33.0768 23.2214 33.1562 23.4544 33.2109 23.7305C33.2656 24.0065 33.293 24.3307 33.293 24.7031ZM32.5664 25.6875V24.582C32.5664 24.3268 32.5508 24.1029 32.5195 23.9102C32.4909 23.7148 32.4479 23.5482 32.3906 23.4102C32.3333 23.2721 32.2604 23.1602 32.1719 23.0742C32.0859 22.9883 31.9857 22.9258 31.8711 22.8867C31.7591 22.8451 31.6328 22.8242 31.4922 22.8242C31.3203 22.8242 31.168 22.8568 31.0352 22.9219C30.9023 22.9844 30.7904 23.0846 30.6992 23.2227C30.6107 23.3607 30.543 23.5417 30.4961 23.7656C30.4492 23.9896 30.4258 24.2617 30.4258 24.582V25.6875C30.4258 25.9427 30.4401 26.168 30.4688 26.3633C30.5 26.5586 30.5456 26.7279 30.6055 26.8711C30.6654 27.0117 30.7383 27.1276 30.8242 27.2188C30.9102 27.3099 31.0091 27.3776 31.1211 27.4219C31.2357 27.4635 31.362 27.4844 31.5 27.4844C31.6771 27.4844 31.832 27.4505 31.9648 27.3828C32.0977 27.3151 32.2083 27.2096 32.2969 27.0664C32.388 26.9206 32.4557 26.7344 32.5 26.5078C32.5443 26.2786 32.5664 26.0052 32.5664 25.6875Z" fill="black"/> <path d="M36.4219 70.0859V70.6797H32.3125V70.2539L34.8594 66.3125H35.4492L34.8164 67.4531L33.1328 70.0859H36.4219ZM35.6289 66.3125V72H34.9062V66.3125H35.6289Z" fill="black"/> <path d="M31.8047 71.4062V72H28.082V71.4805L29.9453 69.4062C30.1745 69.151 30.3516 68.9349 30.4766 68.7578C30.6042 68.5781 30.6927 68.418 30.7422 68.2773C30.7943 68.1341 30.8203 67.9883 30.8203 67.8398C30.8203 67.6523 30.7812 67.4831 30.7031 67.332C30.6276 67.1784 30.5156 67.056 30.3672 66.9648C30.2188 66.8737 30.0391 66.8281 29.8281 66.8281C29.5755 66.8281 29.3646 66.8776 29.1953 66.9766C29.0286 67.0729 28.9036 67.2083 28.8203 67.3828C28.737 67.5573 28.6953 67.7578 28.6953 67.9844H27.9727C27.9727 67.6641 28.043 67.3711 28.1836 67.1055C28.3242 66.8398 28.5326 66.6289 28.8086 66.4727C29.0846 66.3138 29.4245 66.2344 29.8281 66.2344C30.1875 66.2344 30.4948 66.2982 30.75 66.4258C31.0052 66.5508 31.2005 66.7279 31.3359 66.957C31.474 67.1836 31.543 67.4492 31.543 67.7539C31.543 67.9206 31.5143 68.0898 31.457 68.2617C31.4023 68.431 31.3255 68.6003 31.2266 68.7695C31.1302 68.9388 31.0169 69.1055 30.8867 69.2695C30.7591 69.4336 30.6224 69.5951 30.4766 69.7539L28.9531 71.4062H31.8047Z" fill="black"/> <path d="M27.4492 69.2852V69.8789H25.543V69.2852H27.4492Z" fill="black"/> <path d="M28.8789 99.9414V99.8359C28.8789 99.5521 28.9232 99.2826 29.0117 99.0273C29.1029 98.7695 29.2318 98.5404 29.3984 98.3398C29.5651 98.1393 29.7643 97.9818 29.9961 97.8672C30.2279 97.7526 30.4857 97.6953 30.7695 97.6953C31.0508 97.6953 31.2969 97.7513 31.5078 97.8633C31.7214 97.9727 31.9049 98.1146 32.0586 98.2891C32.2148 98.4635 32.3451 98.6484 32.4492 98.8438C32.5534 99.0365 32.6367 99.2201 32.6992 99.3945C32.7643 99.5664 32.8138 99.7031 32.8477 99.8047V99.9688C32.8138 100.07 32.7643 100.208 32.6992 100.383C32.6367 100.555 32.5534 100.738 32.4492 100.934C32.3451 101.129 32.2161 101.314 32.0625 101.488C31.9089 101.663 31.7253 101.806 31.5117 101.918C31.3008 102.027 31.056 102.082 30.7773 102.082C30.4909 102.082 30.2305 102.025 29.9961 101.91C29.7643 101.796 29.5651 101.638 29.3984 101.438C29.2318 101.237 29.1029 101.009 29.0117 100.754C28.9232 100.496 28.8789 100.225 28.8789 99.9414ZM29.6016 99.8359V99.9414C29.6016 100.152 29.6263 100.352 29.6758 100.539C29.7279 100.724 29.8034 100.888 29.9023 101.031C30.0039 101.174 30.1276 101.286 30.2734 101.367C30.4193 101.448 30.5872 101.488 30.7773 101.488C30.9622 101.488 31.1263 101.448 31.2695 101.367C31.4154 101.284 31.543 101.178 31.6523 101.051C31.7617 100.923 31.8529 100.789 31.9258 100.648C32.0013 100.508 32.0612 100.376 32.1055 100.254C32.1497 100.132 32.1797 100.036 32.1953 99.9688V99.8047C32.1797 99.7396 32.1497 99.6471 32.1055 99.5273C32.0612 99.4049 32.0013 99.2734 31.9258 99.1328C31.8529 98.9922 31.7617 98.8581 31.6523 98.7305C31.543 98.6003 31.4141 98.4948 31.2656 98.4141C31.1198 98.3307 30.9544 98.2891 30.7695 98.2891C30.582 98.2891 30.4154 98.3307 30.2695 98.4141C30.1237 98.4948 30.0013 98.6068 29.9023 98.75C29.8034 98.8932 29.7279 99.0586 29.6758 99.2461C29.6263 99.431 29.6016 99.6276 29.6016 99.8359ZM36.2891 99.8359V99.9414C36.2891 100.225 36.2435 100.496 36.1523 100.754C36.0612 101.009 35.9323 101.237 35.7656 101.438C35.599 101.638 35.3984 101.796 35.1641 101.91C34.9323 102.025 34.6745 102.082 34.3906 102.082C34.112 102.082 33.8659 102.027 33.6523 101.918C33.4414 101.806 33.2578 101.663 33.1016 101.488C32.9479 101.314 32.819 101.129 32.7148 100.934C32.6107 100.738 32.526 100.555 32.4609 100.383C32.3984 100.208 32.3516 100.07 32.3203 99.9688V99.8047C32.3542 99.7031 32.4023 99.5664 32.4648 99.3945C32.5299 99.2201 32.6146 99.0365 32.7188 98.8438C32.8229 98.6484 32.9518 98.4635 33.1055 98.2891C33.2617 98.1146 33.4453 97.9727 33.6562 97.8633C33.8698 97.7513 34.1172 97.6953 34.3984 97.6953C34.6797 97.6953 34.9362 97.7526 35.168 97.8672C35.3997 97.9818 35.599 98.1393 35.7656 98.3398C35.9349 98.5404 36.0638 98.7695 36.1523 99.0273C36.2435 99.2826 36.2891 99.5521 36.2891 99.8359ZM35.5664 99.9414V99.8359C35.5664 99.6276 35.5404 99.431 35.4883 99.2461C35.4362 99.0586 35.3607 98.8932 35.2617 98.75C35.1628 98.6068 35.0404 98.4948 34.8945 98.4141C34.7513 98.3307 34.5859 98.2891 34.3984 98.2891C34.2109 98.2891 34.0443 98.3307 33.8984 98.4141C33.7526 98.4948 33.625 98.6003 33.5156 98.7305C33.4062 98.8581 33.3138 98.9922 33.2383 99.1328C33.1628 99.2734 33.1029 99.4049 33.0586 99.5273C33.0143 99.6471 32.9844 99.7396 32.9688 99.8047V99.9688C32.9844 100.036 33.0143 100.132 33.0586 100.254C33.1029 100.376 33.1628 100.508 33.2383 100.648C33.3138 100.789 33.4049 100.923 33.5117 101.051C33.6211 101.178 33.7487 101.284 33.8945 101.367C34.0404 101.448 34.2057 101.488 34.3906 101.488C34.5781 101.488 34.7448 101.448 34.8906 101.367C35.0365 101.286 35.1589 101.174 35.2578 101.031C35.3594 100.888 35.4362 100.724 35.4883 100.539C35.5404 100.352 35.5664 100.152 35.5664 99.9414Z" fill="black"/> <path d="M28.3359 99.2852V99.8789H26.4297V99.2852H28.3359Z" fill="black"/> <path d="M32.4961 11.3047H32.5586V11.918H32.4961C32.1133 11.918 31.793 11.9805 31.5352 12.1055C31.2773 12.2279 31.0729 12.3932 30.9219 12.6016C30.7708 12.8073 30.6615 13.0391 30.5938 13.2969C30.5286 13.5547 30.4961 13.8164 30.4961 14.082V14.918C30.4961 15.1706 30.526 15.3945 30.5859 15.5898C30.6458 15.7826 30.7279 15.9453 30.832 16.0781C30.9362 16.2109 31.0534 16.3112 31.1836 16.3789C31.3164 16.4466 31.4544 16.4805 31.5977 16.4805C31.7643 16.4805 31.9128 16.4492 32.043 16.3867C32.1732 16.3216 32.2826 16.2318 32.3711 16.1172C32.4622 16 32.5312 15.862 32.5781 15.7031C32.625 15.5443 32.6484 15.3698 32.6484 15.1797C32.6484 15.0104 32.6276 14.8477 32.5859 14.6914C32.5443 14.5326 32.4805 14.3919 32.3945 14.2695C32.3086 14.1445 32.2005 14.0469 32.0703 13.9766C31.9427 13.9036 31.7904 13.8672 31.6133 13.8672C31.4128 13.8672 31.2253 13.9167 31.0508 14.0156C30.8789 14.112 30.737 14.2396 30.625 14.3984C30.5156 14.5547 30.4531 14.7253 30.4375 14.9102L30.0547 14.9062C30.0911 14.6146 30.1589 14.3659 30.2578 14.1602C30.3594 13.9518 30.4844 13.7826 30.6328 13.6523C30.7839 13.5195 30.9518 13.4232 31.1367 13.3633C31.3242 13.3008 31.5221 13.2695 31.7305 13.2695C32.0143 13.2695 32.2591 13.3229 32.4648 13.4297C32.6706 13.5365 32.8398 13.6797 32.9727 13.8594C33.1055 14.0365 33.2031 14.237 33.2656 14.4609C33.3307 14.6823 33.3633 14.9102 33.3633 15.1445C33.3633 15.4128 33.3255 15.6641 33.25 15.8984C33.1745 16.1328 33.0612 16.3385 32.9102 16.5156C32.7617 16.6927 32.5781 16.8307 32.3594 16.9297C32.1406 17.0286 31.8867 17.0781 31.5977 17.0781C31.2904 17.0781 31.0221 17.0156 30.793 16.8906C30.5638 16.763 30.3737 16.5938 30.2227 16.3828C30.0716 16.1719 29.9583 15.9375 29.8828 15.6797C29.8073 15.4219 29.7695 15.1602 29.7695 14.8945V14.5547C29.7695 14.1536 29.8099 13.7604 29.8906 13.375C29.9714 12.9896 30.1107 12.6406 30.3086 12.3281C30.5091 12.0156 30.7865 11.7669 31.1406 11.582C31.4948 11.3971 31.9466 11.3047 32.4961 11.3047Z" fill="black"/> <path d="M36.1641 59.4609C36.1641 59.8073 36.0833 60.1016 35.9219 60.3438C35.763 60.5833 35.5469 60.7656 35.2734 60.8906C35.0026 61.0156 34.6966 61.0781 34.3555 61.0781C34.0143 61.0781 33.707 61.0156 33.4336 60.8906C33.1602 60.7656 32.944 60.5833 32.7852 60.3438C32.6263 60.1016 32.5469 59.8073 32.5469 59.4609C32.5469 59.2344 32.5898 59.0273 32.6758 58.8398C32.7643 58.6497 32.888 58.4844 33.0469 58.3438C33.2083 58.2031 33.3984 58.0951 33.6172 58.0195C33.8385 57.9414 34.082 57.9023 34.3477 57.9023C34.6966 57.9023 35.0078 57.9701 35.2812 58.1055C35.5547 58.2383 35.7695 58.4219 35.9258 58.6562C36.0846 58.8906 36.1641 59.1589 36.1641 59.4609ZM35.4375 59.4453C35.4375 59.2344 35.3919 59.0482 35.3008 58.8867C35.2096 58.7227 35.082 58.5951 34.918 58.5039C34.7539 58.4128 34.5638 58.3672 34.3477 58.3672C34.1263 58.3672 33.9349 58.4128 33.7734 58.5039C33.6146 58.5951 33.4909 58.7227 33.4023 58.8867C33.3138 59.0482 33.2695 59.2344 33.2695 59.4453C33.2695 59.6641 33.3125 59.8516 33.3984 60.0078C33.487 60.1615 33.612 60.2799 33.7734 60.3633C33.9375 60.444 34.1315 60.4844 34.3555 60.4844C34.5794 60.4844 34.7721 60.444 34.9336 60.3633C35.0951 60.2799 35.2188 60.1615 35.3047 60.0078C35.3932 59.8516 35.4375 59.6641 35.4375 59.4453ZM36.0312 56.793C36.0312 57.069 35.9583 57.3177 35.8125 57.5391C35.6667 57.7604 35.4674 57.9349 35.2148 58.0625C34.9622 58.1901 34.6758 58.2539 34.3555 58.2539C34.0299 58.2539 33.7396 58.1901 33.4844 58.0625C33.2318 57.9349 33.0339 57.7604 32.8906 57.5391C32.7474 57.3177 32.6758 57.069 32.6758 56.793C32.6758 56.4622 32.7474 56.181 32.8906 55.9492C33.0365 55.7174 33.2357 55.5404 33.4883 55.418C33.7409 55.2956 34.0286 55.2344 34.3516 55.2344C34.6771 55.2344 34.9661 55.2956 35.2188 55.418C35.4714 55.5404 35.6693 55.7174 35.8125 55.9492C35.9583 56.181 36.0312 56.4622 36.0312 56.793ZM35.3086 56.8047C35.3086 56.6146 35.2682 56.4466 35.1875 56.3008C35.1068 56.1549 34.9948 56.0404 34.8516 55.957C34.7083 55.8711 34.5417 55.8281 34.3516 55.8281C34.1615 55.8281 33.9948 55.8685 33.8516 55.9492C33.7109 56.0273 33.6003 56.1393 33.5195 56.2852C33.4414 56.431 33.4023 56.6042 33.4023 56.8047C33.4023 57 33.4414 57.1706 33.5195 57.3164C33.6003 57.4622 33.7122 57.5755 33.8555 57.6562C33.9987 57.737 34.1654 57.7773 34.3555 57.7773C34.5456 57.7773 34.7109 57.737 34.8516 57.6562C34.9948 57.5755 35.1068 57.4622 35.1875 57.3164C35.2682 57.1706 35.3086 57 35.3086 56.8047Z" fill="black"/> <path d="M30.4531 55.2812V61H29.7305V56.1836L28.2734 56.7148V56.0625L30.3398 55.2812H30.4531Z" fill="black"/> <path d="M27.4492 58.2852V58.8789H25.543V58.2852H27.4492Z" fill="black"/> <path d="M36.1641 90.4609C36.1641 90.8073 36.0833 91.1016 35.9219 91.3438C35.763 91.5833 35.5469 91.7656 35.2734 91.8906C35.0026 92.0156 34.6966 92.0781 34.3555 92.0781C34.0143 92.0781 33.707 92.0156 33.4336 91.8906C33.1602 91.7656 32.944 91.5833 32.7852 91.3438C32.6263 91.1016 32.5469 90.8073 32.5469 90.4609C32.5469 90.2344 32.5898 90.0273 32.6758 89.8398C32.7643 89.6497 32.888 89.4844 33.0469 89.3438C33.2083 89.2031 33.3984 89.0951 33.6172 89.0195C33.8385 88.9414 34.082 88.9023 34.3477 88.9023C34.6966 88.9023 35.0078 88.9701 35.2812 89.1055C35.5547 89.2383 35.7695 89.4219 35.9258 89.6562C36.0846 89.8906 36.1641 90.1589 36.1641 90.4609ZM35.4375 90.4453C35.4375 90.2344 35.3919 90.0482 35.3008 89.8867C35.2096 89.7227 35.082 89.5951 34.918 89.5039C34.7539 89.4128 34.5638 89.3672 34.3477 89.3672C34.1263 89.3672 33.9349 89.4128 33.7734 89.5039C33.6146 89.5951 33.4909 89.7227 33.4023 89.8867C33.3138 90.0482 33.2695 90.2344 33.2695 90.4453C33.2695 90.6641 33.3125 90.8516 33.3984 91.0078C33.487 91.1615 33.612 91.2799 33.7734 91.3633C33.9375 91.444 34.1315 91.4844 34.3555 91.4844C34.5794 91.4844 34.7721 91.444 34.9336 91.3633C35.0951 91.2799 35.2188 91.1615 35.3047 91.0078C35.3932 90.8516 35.4375 90.6641 35.4375 90.4453ZM36.0312 87.793C36.0312 88.069 35.9583 88.3177 35.8125 88.5391C35.6667 88.7604 35.4674 88.9349 35.2148 89.0625C34.9622 89.1901 34.6758 89.2539 34.3555 89.2539C34.0299 89.2539 33.7396 89.1901 33.4844 89.0625C33.2318 88.9349 33.0339 88.7604 32.8906 88.5391C32.7474 88.3177 32.6758 88.069 32.6758 87.793C32.6758 87.4622 32.7474 87.181 32.8906 86.9492C33.0365 86.7174 33.2357 86.5404 33.4883 86.418C33.7409 86.2956 34.0286 86.2344 34.3516 86.2344C34.6771 86.2344 34.9661 86.2956 35.2188 86.418C35.4714 86.5404 35.6693 86.7174 35.8125 86.9492C35.9583 87.181 36.0312 87.4622 36.0312 87.793ZM35.3086 87.8047C35.3086 87.6146 35.2682 87.4466 35.1875 87.3008C35.1068 87.1549 34.9948 87.0404 34.8516 86.957C34.7083 86.8711 34.5417 86.8281 34.3516 86.8281C34.1615 86.8281 33.9948 86.8685 33.8516 86.9492C33.7109 87.0273 33.6003 87.1393 33.5195 87.2852C33.4414 87.431 33.4023 87.6042 33.4023 87.8047C33.4023 88 33.4414 88.1706 33.5195 88.3164C33.6003 88.4622 33.7122 88.5755 33.8555 88.6562C33.9987 88.737 34.1654 88.7773 34.3555 88.7773C34.5456 88.7773 34.7109 88.737 34.8516 88.6562C34.9948 88.5755 35.1068 88.4622 35.1875 88.3164C35.2682 88.1706 35.3086 88 35.3086 87.8047Z" fill="black"/> <path d="M31.9219 90.0859V90.6797H27.8125V90.2539L30.3594 86.3125H30.9492L30.3164 87.4531L28.6328 90.0859H31.9219ZM31.1289 86.3125V92H30.4062V86.3125H31.1289Z" fill="black"/> <path d="M27.4492 89.2852V89.8789H25.543V89.2852H27.4492Z" fill="black"/> <path d="M33.6016 33.3047H33.6641V33.918H33.6016C33.2188 33.918 32.8984 33.9805 32.6406 34.1055C32.3828 34.2279 32.1784 34.3932 32.0273 34.6016C31.8763 34.8073 31.7669 35.0391 31.6992 35.2969C31.6341 35.5547 31.6016 35.8164 31.6016 36.082V36.918C31.6016 37.1706 31.6315 37.3945 31.6914 37.5898C31.7513 37.7826 31.8333 37.9453 31.9375 38.0781C32.0417 38.2109 32.1589 38.3112 32.2891 38.3789C32.4219 38.4466 32.5599 38.4805 32.7031 38.4805C32.8698 38.4805 33.0182 38.4492 33.1484 38.3867C33.2786 38.3216 33.388 38.2318 33.4766 38.1172C33.5677 38 33.6367 37.862 33.6836 37.7031C33.7305 37.5443 33.7539 37.3698 33.7539 37.1797C33.7539 37.0104 33.7331 36.8477 33.6914 36.6914C33.6497 36.5326 33.5859 36.3919 33.5 36.2695C33.4141 36.1445 33.306 36.0469 33.1758 35.9766C33.0482 35.9036 32.8958 35.8672 32.7188 35.8672C32.5182 35.8672 32.3307 35.9167 32.1562 36.0156C31.9844 36.112 31.8424 36.2396 31.7305 36.3984C31.6211 36.5547 31.5586 36.7253 31.543 36.9102L31.1602 36.9062C31.1966 36.6146 31.2643 36.3659 31.3633 36.1602C31.4648 35.9518 31.5898 35.7826 31.7383 35.6523C31.8893 35.5195 32.0573 35.4232 32.2422 35.3633C32.4297 35.3008 32.6276 35.2695 32.8359 35.2695C33.1198 35.2695 33.3646 35.3229 33.5703 35.4297C33.776 35.5365 33.9453 35.6797 34.0781 35.8594C34.2109 36.0365 34.3086 36.237 34.3711 36.4609C34.4362 36.6823 34.4688 36.9102 34.4688 37.1445C34.4688 37.4128 34.431 37.6641 34.3555 37.8984C34.2799 38.1328 34.1667 38.3385 34.0156 38.5156C33.8672 38.6927 33.6836 38.8307 33.4648 38.9297C33.2461 39.0286 32.9922 39.0781 32.7031 39.0781C32.3958 39.0781 32.1276 39.0156 31.8984 38.8906C31.6693 38.763 31.4792 38.5938 31.3281 38.3828C31.1771 38.1719 31.0638 37.9375 30.9883 37.6797C30.9128 37.4219 30.875 37.1602 30.875 36.8945V36.5547C30.875 36.1536 30.9154 35.7604 30.9961 35.375C31.0768 34.9896 31.2161 34.6406 31.4141 34.3281C31.6146 34.0156 31.8919 33.7669 32.2461 33.582C32.6003 33.3971 33.0521 33.3047 33.6016 33.3047Z" fill="black"/> <path d="M30.1992 36.2852V36.8789H28.293V36.2852H30.1992Z" fill="black"/> <path d="M35.3516 77.3047H35.4141V77.918H35.3516C34.9688 77.918 34.6484 77.9805 34.3906 78.1055C34.1328 78.2279 33.9284 78.3932 33.7773 78.6016C33.6263 78.8073 33.5169 79.0391 33.4492 79.2969C33.3841 79.5547 33.3516 79.8164 33.3516 80.082V80.918C33.3516 81.1706 33.3815 81.3945 33.4414 81.5898C33.5013 81.7826 33.5833 81.9453 33.6875 82.0781C33.7917 82.2109 33.9089 82.3112 34.0391 82.3789C34.1719 82.4466 34.3099 82.4805 34.4531 82.4805C34.6198 82.4805 34.7682 82.4492 34.8984 82.3867C35.0286 82.3216 35.138 82.2318 35.2266 82.1172C35.3177 82 35.3867 81.862 35.4336 81.7031C35.4805 81.5443 35.5039 81.3698 35.5039 81.1797C35.5039 81.0104 35.4831 80.8477 35.4414 80.6914C35.3997 80.5326 35.3359 80.3919 35.25 80.2695C35.1641 80.1445 35.056 80.0469 34.9258 79.9766C34.7982 79.9036 34.6458 79.8672 34.4688 79.8672C34.2682 79.8672 34.0807 79.9167 33.9062 80.0156C33.7344 80.112 33.5924 80.2396 33.4805 80.3984C33.3711 80.5547 33.3086 80.7253 33.293 80.9102L32.9102 80.9062C32.9466 80.6146 33.0143 80.3659 33.1133 80.1602C33.2148 79.9518 33.3398 79.7826 33.4883 79.6523C33.6393 79.5195 33.8073 79.4232 33.9922 79.3633C34.1797 79.3008 34.3776 79.2695 34.5859 79.2695C34.8698 79.2695 35.1146 79.3229 35.3203 79.4297C35.526 79.5365 35.6953 79.6797 35.8281 79.8594C35.9609 80.0365 36.0586 80.237 36.1211 80.4609C36.1862 80.6823 36.2188 80.9102 36.2188 81.1445C36.2188 81.4128 36.181 81.6641 36.1055 81.8984C36.0299 82.1328 35.9167 82.3385 35.7656 82.5156C35.6172 82.6927 35.4336 82.8307 35.2148 82.9297C34.9961 83.0286 34.7422 83.0781 34.4531 83.0781C34.1458 83.0781 33.8776 83.0156 33.6484 82.8906C33.4193 82.763 33.2292 82.5938 33.0781 82.3828C32.9271 82.1719 32.8138 81.9375 32.7383 81.6797C32.6628 81.4219 32.625 81.1602 32.625 80.8945V80.5547C32.625 80.1536 32.6654 79.7604 32.7461 79.375C32.8268 78.9896 32.9661 78.6406 33.1641 78.3281C33.3646 78.0156 33.6419 77.7669 33.9961 77.582C34.3503 77.3971 34.8021 77.3047 35.3516 77.3047Z" fill="black"/> <path d="M29.1328 79.8008H29.6484C29.901 79.8008 30.1094 79.7591 30.2734 79.6758C30.4401 79.5898 30.5638 79.474 30.6445 79.3281C30.7279 79.1797 30.7695 79.013 30.7695 78.8281C30.7695 78.6094 30.7331 78.4258 30.6602 78.2773C30.5872 78.1289 30.4779 78.0169 30.332 77.9414C30.1862 77.8659 30.0013 77.8281 29.7773 77.8281C29.5742 77.8281 29.3945 77.8685 29.2383 77.9492C29.0846 78.0273 28.9635 78.1393 28.875 78.2852C28.7891 78.431 28.7461 78.6029 28.7461 78.8008H28.0234C28.0234 78.5117 28.0964 78.2487 28.2422 78.0117C28.388 77.7747 28.5924 77.5859 28.8555 77.4453C29.1211 77.3047 29.4284 77.2344 29.7773 77.2344C30.1211 77.2344 30.4219 77.2956 30.6797 77.418C30.9375 77.5378 31.138 77.7174 31.2812 77.957C31.4245 78.194 31.4961 78.4896 31.4961 78.8438C31.4961 78.987 31.4622 79.1406 31.3945 79.3047C31.3294 79.4661 31.2266 79.6172 31.0859 79.7578C30.9479 79.8984 30.7682 80.0143 30.5469 80.1055C30.3255 80.194 30.0599 80.2383 29.75 80.2383H29.1328V79.8008ZM29.1328 80.3945V79.9609H29.75C30.112 79.9609 30.4115 80.0039 30.6484 80.0898C30.8854 80.1758 31.0716 80.2904 31.207 80.4336C31.3451 80.5768 31.4414 80.7344 31.4961 80.9062C31.5534 81.0755 31.582 81.2448 31.582 81.4141C31.582 81.6797 31.5365 81.9154 31.4453 82.1211C31.3568 82.3268 31.2305 82.5013 31.0664 82.6445C30.9049 82.7878 30.7148 82.8958 30.4961 82.9688C30.2773 83.0417 30.0391 83.0781 29.7812 83.0781C29.5339 83.0781 29.3008 83.043 29.082 82.9727C28.8659 82.9023 28.6745 82.8008 28.5078 82.668C28.3411 82.5326 28.2109 82.3672 28.1172 82.1719C28.0234 81.974 27.9766 81.7487 27.9766 81.4961H28.6992C28.6992 81.694 28.7422 81.8672 28.8281 82.0156C28.9167 82.1641 29.0417 82.2799 29.2031 82.3633C29.3672 82.444 29.5599 82.4844 29.7812 82.4844C30.0026 82.4844 30.1927 82.4466 30.3516 82.3711C30.513 82.293 30.6367 82.1758 30.7227 82.0195C30.8112 81.8633 30.8555 81.6667 30.8555 81.4297C30.8555 81.1927 30.806 80.9987 30.707 80.8477C30.6081 80.694 30.4674 80.5807 30.2852 80.5078C30.1055 80.4323 29.8932 80.3945 29.6484 80.3945H29.1328Z" fill="black"/> <path d="M27.4492 80.2852V80.8789H25.543V80.2852H27.4492Z" fill="black"/> <path d="M12 1H17V101H12V1Z" fill="#E7E1FB"/> <path d="M25 24.8806V25.6269H17V24.8806H25Z" fill="#C8A5FF"/> <path d="M12 24.8806V25.6269H4V24.8806H12Z" fill="#C8A5FF"/> <path d="M21 36.0746V36.8209H17V36.0746H21Z" fill="#C8A5FF"/> <path d="M12 36.0746V36.8209H8V36.0746H12Z" fill="#C8A5FF"/> <path d="M21 13.6866V14.4328H17V13.6866H21Z" fill="#C8A5FF"/> <path d="M12 13.6866V14.4328H8V13.6866H12Z" fill="#C8A5FF"/> <path d="M21 3.23881V3.98507H17V3.23881H21Z" fill="#C8A5FF"/> <path d="M12 3.23881V3.98507H8V3.23881H12Z" fill="#C8A5FF"/> <path d="M21 47.2687V48.0149H17V47.2687H21Z" fill="#C8A5FF"/> <path d="M12 47.2687V48.0149H8V47.2687H12Z" fill="#C8A5FF"/> <path d="M21 58.4627V59.209H17V58.4627H21Z" fill="#C8A5FF"/> <path d="M12 58.4627V59.209H8V58.4627H12Z" fill="#C8A5FF"/> <path d="M21 69.6567V70.403H17V69.6567H21Z" fill="#C8A5FF"/> <path d="M12 69.6567V70.403H8V69.6567H12Z" fill="#C8A5FF"/> <path d="M21 80.1045V80.8507H17V80.1045H21Z" fill="#C8A5FF"/> <path d="M12 80.1045V80.8507H8V80.1045H12Z" fill="#C8A5FF"/> <path d="M21 89.806V90.5522H17V89.806H21Z" fill="#C8A5FF"/> <path d="M12 89.806V90.5522H8V89.806H12Z" fill="#C8A5FF"/> <path d="M21 98.7612V99.5075H17V98.7612H21Z" fill="#C8A5FF"/> <path d="M12 98.7612V99.5075H8V98.7612H12Z" fill="#C8A5FF"/> </g> <defs> <filter id="filter0_d_192_2231" x="0" y="0" width="41" height="145" filterUnits="userSpaceOnUse" color-interpolation-filters="sRGB"> <feFlood flood-opacity="0" result="BackgroundImageFix"/> <feColorMatrix in="SourceAlpha" type="matrix" values="0 0 0 0 0 0 0 0 0 0 0 0 0 0 0 0 0 0 127 0" result="hardAlpha"/> <feOffset dy="4"/> <feGaussianBlur stdDeviation="2"/> <feComposite in2="hardAlpha" operator="out"/> <feColorMatrix type="matrix" values="0 0 0 0 0 0 0 0 0 0 0 0 0 0 0 0 0 0 0.25 0"/> <feBlend mode="normal" in2="BackgroundImageFix" result="effect1_dropShadow_192_2231"/> <feBlend mode="normal" in="SourceGraphic" in2="effect1_dropShadow_192_2231" result="shape"/> </filter> </defs> </svg>